<svg width="2610" height="1596" viewBox="0 0 2610 1596" fill="none" xmlns="http://www.w3.org/2000/svg">
<mask id="mask0_471_49" style="mask-type:alpha" maskUnits="userSpaceOnUse" x="-102" y="-90" width="1712" height="1799">
<rect x="688.769" y="-89.4141" width="93.6744" height="1520.65" transform="rotate(31.3123 688.769 -89.4141)" fill="#D9D9D9"/>
<rect x="761.771" y="70.7812" width="78.7434" height="1326.54" transform="rotate(31.3123 761.771 70.7812)" fill="#D9D9D9"/>
<rect x="878.699" y="140.789" width="74.8528" height="1326.54" transform="rotate(31.3123 878.699 140.789)" fill="#D9D9D9"/>
<rect x="993.231" y="195.82" width="62.9488" height="1326.54" transform="rotate(31.3123 993.231 195.82)" fill="#D9D9D9"/>
<rect x="1100.58" y="265.828" width="53.1552" height="1326.54" transform="rotate(31.3123 1100.58 265.828)" fill="#D9D9D9"/>
<rect x="1203.23" y="335.805" width="46.5067" height="1326.54" transform="rotate(31.3123 1203.23 335.805)" fill="#D9D9D9"/>
<rect x="1313.79" y="395.625" width="39.1174" height="1326.54" transform="rotate(31.3123 1313.79 395.625)" fill="#D9D9D9"/>
<rect x="1388.86" y="471.141" width="27.5439" height="1326.54" transform="rotate(31.3123 1388.86 471.141)" fill="#D9D9D9"/>
</mask>
<g mask="url(#mask0_471_49)">
<path d="M638.768 13.8398L1175.39 881.767H102.146L638.768 13.8398Z" fill="#2270B8"/>
</g>
<path d="M1098.04 449.905H1160.75C1171.82 449.905 1181.79 451.865 1190.67 455.785C1199.56 459.617 1206.61 465.496 1211.84 473.422C1217.15 481.261 1219.81 491.104 1219.81 502.949C1219.81 514.708 1217.15 524.724 1211.84 532.999C1206.61 541.186 1199.56 547.457 1190.67 551.812C1181.79 556.08 1171.82 558.214 1160.75 558.214H1137.11V622.363H1098.04V449.905ZM1137.11 527.381H1149.91C1155.22 527.381 1159.97 526.597 1164.15 525.029C1168.42 523.461 1171.82 520.979 1174.34 517.582C1176.87 514.098 1178.13 509.525 1178.13 503.864C1178.13 498.115 1176.87 493.586 1174.34 490.276C1171.82 486.879 1168.42 484.44 1164.15 482.96C1159.97 481.479 1155.22 480.739 1149.91 480.739H1137.11V527.381ZM1293.03 536.004C1293.03 545.846 1295.04 554.774 1299.04 562.787C1303.14 570.713 1308.75 577.028 1315.9 581.731C1323.13 586.435 1331.49 588.786 1340.98 588.786C1350.48 588.786 1358.79 586.435 1365.94 581.731C1373.17 577.028 1378.78 570.713 1382.79 562.787C1386.88 554.774 1388.93 545.846 1388.93 536.004C1388.93 526.161 1386.88 517.277 1382.79 509.351C1378.78 501.425 1373.17 495.11 1365.94 490.407C1358.79 485.616 1350.48 483.221 1340.98 483.221C1331.49 483.221 1323.13 485.616 1315.9 490.407C1308.75 495.11 1303.14 501.425 1299.04 509.351C1295.04 517.277 1293.03 526.161 1293.03 536.004ZM1252.4 536.004C1252.4 523.461 1254.62 511.79 1259.06 500.989C1263.51 490.102 1269.73 480.608 1277.75 472.508C1285.76 464.407 1295.17 458.093 1305.97 453.563C1316.77 449.034 1328.44 446.77 1340.98 446.77C1353.7 446.77 1365.41 449.034 1376.13 453.563C1386.93 458.093 1396.29 464.407 1404.22 472.508C1412.23 480.608 1418.41 490.102 1422.77 500.989C1427.21 511.79 1429.43 523.461 1429.43 536.004C1429.43 548.633 1427.3 560.392 1423.03 571.279C1418.76 582.08 1412.67 591.573 1404.74 599.761C1396.81 607.861 1387.45 614.176 1376.65 618.705C1365.85 623.234 1353.96 625.499 1340.98 625.499C1327.74 625.499 1315.68 623.234 1304.79 618.705C1293.99 614.176 1284.67 607.861 1276.83 599.761C1268.99 591.573 1262.94 582.08 1258.67 571.279C1254.49 560.392 1252.4 548.633 1252.4 536.004ZM1468.55 449.905H1507.61V588.133H1570.19V622.363H1468.55V449.905ZM1632.85 560.305L1573.4 449.905H1620.83L1652.32 515.622L1683.93 449.905H1731.1L1671.91 560.305V622.363H1632.85V560.305ZM1830.72 525.944H1918.64V536.918C1918.64 549.286 1916.55 560.827 1912.37 571.54C1908.28 582.254 1902.4 591.661 1894.73 599.761C1887.07 607.861 1877.92 614.176 1867.3 618.705C1856.67 623.234 1844.91 625.499 1832.02 625.499C1818.7 625.499 1806.59 623.234 1795.7 618.705C1784.9 614.089 1775.58 607.687 1767.74 599.5C1759.9 591.312 1753.89 581.818 1749.71 571.018C1745.53 560.13 1743.44 548.459 1743.44 536.004C1743.44 523.635 1745.53 512.051 1749.71 501.251C1753.89 490.363 1759.9 480.869 1767.74 472.769C1775.58 464.582 1784.9 458.223 1795.7 453.694C1806.59 449.078 1818.7 446.77 1832.02 446.77C1842.91 446.77 1852.49 447.946 1860.76 450.297C1869.13 452.649 1876.31 455.785 1882.32 459.704C1888.33 463.624 1893.43 467.935 1897.61 472.638C1901.79 477.255 1905.27 481.784 1908.06 486.226L1870.96 503.733C1867.38 498.246 1862.51 493.455 1856.32 489.362C1850.23 485.268 1842.13 483.221 1832.02 483.221C1824.97 483.221 1818.48 484.615 1812.55 487.402C1806.72 490.189 1801.67 494.021 1797.4 498.899C1793.13 503.69 1789.82 509.307 1787.47 515.753C1785.21 522.111 1784.07 528.861 1784.07 536.004C1784.07 543.233 1785.21 550.027 1787.47 556.385C1789.82 562.743 1793.13 568.361 1797.4 573.239C1801.67 578.116 1806.72 581.949 1812.55 584.736C1818.48 587.436 1824.97 588.786 1832.02 588.786C1838.21 588.786 1843.82 588.002 1848.88 586.435C1853.93 584.867 1858.28 582.602 1861.94 579.641C1865.69 576.679 1868.6 573.195 1870.69 569.189C1872.87 565.095 1874.18 560.609 1874.61 555.732H1830.72V525.944ZM1955.97 449.905H2026.26C2036.28 449.905 2045.2 451.996 2053.04 456.176C2060.88 460.357 2067.07 466.411 2071.59 474.337C2076.21 482.176 2078.52 491.539 2078.52 502.427C2078.52 513.314 2076.56 522.242 2072.64 529.21C2068.81 536.091 2064.19 541.273 2058.79 544.757C2053.39 548.154 2048.38 550.201 2043.77 550.898L2085.71 622.363H2041.81L2004.44 553.903H1995.03V622.363H1955.97V449.905ZM1995.03 526.858H2012.28C2019.25 526.858 2025.34 525.16 2030.57 521.763C2035.8 518.366 2038.41 512.356 2038.41 503.733C2038.41 495.11 2035.84 489.144 2030.7 485.834C2025.56 482.437 2019.51 480.739 2012.54 480.739H1995.03V526.858ZM2170.48 449.905H2209.29L2277.35 622.363H2235.68L2223.13 587.741H2156.76L2144.09 622.363H2102.28L2170.48 449.905ZM2169.83 553.511H2210.2L2190.21 496.939H2189.82L2169.83 553.511ZM2307.09 449.905H2369.8C2380.86 449.905 2390.83 451.865 2399.72 455.785C2408.6 459.617 2415.66 465.496 2420.88 473.422C2426.19 481.261 2428.85 491.104 2428.85 502.949C2428.85 514.708 2426.19 524.724 2420.88 532.999C2415.66 541.186 2408.6 547.457 2399.72 551.812C2390.83 556.08 2380.86 558.214 2369.8 558.214H2346.15V622.363H2307.09V449.905ZM2346.15 527.381H2358.95C2364.27 527.381 2369.01 526.597 2373.19 525.029C2377.46 523.461 2380.86 520.979 2383.39 517.582C2385.91 514.098 2387.17 509.525 2387.17 503.864C2387.17 498.115 2385.91 493.586 2383.39 490.276C2380.86 486.879 2377.46 484.44 2373.19 482.96C2369.01 481.479 2364.27 480.739 2358.95 480.739H2346.15V527.381ZM2565.44 552.988H2505.87V622.363H2466.93V449.905H2505.87V518.888H2565.44V449.905H2604.24V622.363H2565.44V552.988Z" fill="#2270B8"/>
<path d="M1374.41 696.687H1433.6C1443.44 696.687 1452.54 698.037 1460.9 700.737C1469.35 703.437 1476.14 707.879 1481.28 714.063C1486.51 720.16 1489.12 728.434 1489.12 738.886C1489.12 745.767 1487.82 751.908 1485.2 757.308C1482.68 762.708 1479.28 767.15 1475.01 770.634C1470.83 774.031 1466.26 776.296 1461.29 777.428C1465.65 777.951 1469.87 779.214 1473.97 781.217C1478.15 783.133 1481.89 785.833 1485.2 789.317C1488.6 792.714 1491.26 796.982 1493.17 802.121C1495.18 807.173 1496.18 813.183 1496.18 820.151C1496.18 829.819 1494 838.355 1489.65 845.758C1485.38 853.075 1479.11 858.823 1470.83 863.004C1462.64 867.098 1452.58 869.145 1440.65 869.145H1374.41V696.687ZM1413.48 837.919H1431.24C1436.82 837.919 1441.35 837.092 1444.83 835.437C1448.4 833.695 1451.02 831.256 1452.67 828.12C1454.33 824.898 1455.15 821.065 1455.15 816.623C1455.15 809.655 1452.98 804.56 1448.62 801.337C1444.35 798.027 1438.34 796.372 1430.59 796.372H1413.48V837.919ZM1413.48 765.8H1429.28C1433.9 765.8 1437.73 764.973 1440.78 763.318C1443.92 761.663 1446.27 759.355 1447.84 756.394C1449.49 753.345 1450.32 749.861 1450.32 745.942C1450.32 738.886 1448.32 734.14 1444.31 731.701C1440.3 729.175 1434.82 727.912 1427.85 727.912H1413.48V765.8ZM1634.69 696.687H1673.76V802.644C1673.76 816.841 1670.97 829.166 1665.39 839.618C1659.82 849.983 1651.85 858.039 1641.48 863.788C1631.12 869.449 1618.75 872.28 1604.38 872.28C1589.92 872.28 1577.47 869.449 1567.01 863.788C1556.56 858.039 1548.55 849.983 1542.97 839.618C1537.49 829.166 1534.74 816.841 1534.74 802.644V696.687H1573.68V800.553C1573.68 808.392 1574.9 815.012 1577.34 820.412C1579.86 825.812 1583.43 829.906 1588.05 832.693C1592.67 835.393 1598.11 836.743 1604.38 836.743C1610.56 836.743 1615.92 835.393 1620.45 832.693C1624.98 829.906 1628.46 825.812 1630.9 820.412C1633.43 815.012 1634.69 808.392 1634.69 800.553V696.687ZM1779.9 693.551C1790.61 693.551 1799.98 694.727 1807.99 697.078C1816 699.43 1822.45 701.913 1827.33 704.526C1832.2 707.139 1835.17 708.881 1836.21 709.752L1817.4 741.238C1816 740.193 1813.61 738.669 1810.21 736.665C1806.9 734.662 1802.94 732.877 1798.32 731.309C1793.79 729.741 1789.05 728.957 1784.08 728.957C1777.37 728.957 1771.93 730.176 1767.75 732.615C1763.66 734.967 1761.61 738.495 1761.61 743.198C1761.61 746.421 1762.7 749.338 1764.88 751.951C1767.14 754.477 1770.54 756.916 1775.07 759.268C1779.68 761.532 1785.52 764.015 1792.57 766.715C1799.02 769.067 1805.07 771.854 1810.73 775.077C1816.4 778.299 1821.36 782.132 1825.63 786.574C1829.98 790.929 1833.42 795.981 1835.95 801.729C1838.48 807.478 1839.74 814.01 1839.74 821.327C1839.74 830.037 1837.95 837.614 1834.38 844.06C1830.81 850.418 1825.93 855.688 1819.75 859.868C1813.65 864.049 1806.68 867.141 1798.84 869.145C1791.09 871.235 1783.04 872.28 1774.67 872.28C1762.83 872.28 1752.2 870.93 1742.8 868.23C1733.48 865.53 1725.94 862.612 1720.19 859.476C1714.44 856.341 1711 854.25 1709.87 853.205L1729.34 820.412C1730.38 821.196 1732.39 822.459 1735.35 824.201C1738.4 825.943 1742.1 827.772 1746.45 829.688C1750.81 831.517 1755.43 833.085 1760.3 834.392C1765.27 835.698 1770.15 836.351 1774.94 836.351C1782.95 836.351 1788.96 834.827 1792.97 831.779C1796.97 828.643 1798.98 824.549 1798.98 819.498C1798.98 815.752 1797.71 812.399 1795.19 809.437C1792.66 806.476 1788.87 803.689 1783.82 801.076C1778.77 798.376 1772.45 795.545 1764.88 792.584C1757.3 789.535 1750.2 785.833 1743.58 781.478C1737.05 777.123 1731.73 771.68 1727.64 765.147C1723.55 758.615 1721.5 750.514 1721.5 740.846C1721.5 731.178 1724.2 722.817 1729.6 715.761C1735.09 708.619 1742.27 703.132 1751.16 699.3C1760.13 695.467 1769.71 693.551 1779.9 693.551ZM1880.39 696.687H1919.45V869.145H1880.39V696.687ZM2001.5 732.485L2004.38 733.007V869.145H1965.31V696.687H2018.62L2088.52 832.563L2085.64 833.085V696.687H2124.71V869.145H2071.14L2001.5 732.485ZM2169.82 696.687H2279.96V730.917H2208.75V766.062H2279.31V799.247H2208.75V834.914H2279.96V869.145H2169.82V696.687ZM2387.92 693.551C2398.64 693.551 2408 694.727 2416.01 697.078C2424.03 699.43 2430.47 701.913 2435.35 704.526C2440.23 707.139 2443.19 708.881 2444.23 709.752L2425.42 741.238C2424.03 740.193 2421.63 738.669 2418.23 736.665C2414.92 734.662 2410.96 732.877 2406.34 731.309C2401.82 729.741 2397.07 728.957 2392.1 728.957C2385.4 728.957 2379.95 730.176 2375.77 732.615C2371.68 734.967 2369.63 738.495 2369.63 743.198C2369.63 746.421 2370.72 749.338 2372.9 751.951C2375.16 754.477 2378.56 756.916 2383.09 759.268C2387.71 761.532 2393.54 764.015 2400.6 766.715C2407.04 769.067 2413.09 771.854 2418.76 775.077C2424.42 778.299 2429.38 782.132 2433.65 786.574C2438.01 790.929 2441.45 795.981 2443.97 801.729C2446.5 807.478 2447.76 814.01 2447.76 821.327C2447.76 830.037 2445.98 837.614 2442.4 844.06C2438.83 850.418 2433.96 855.688 2427.77 859.868C2421.67 864.049 2414.71 867.141 2406.87 869.145C2399.12 871.235 2391.06 872.28 2382.7 872.28C2370.85 872.28 2360.23 870.93 2350.82 868.23C2341.5 865.53 2333.96 862.612 2328.22 859.476C2322.47 856.341 2319.03 854.25 2317.89 853.205L2337.36 820.412C2338.41 821.196 2340.41 822.459 2343.37 824.201C2346.42 825.943 2350.12 827.772 2354.48 829.688C2358.83 831.517 2363.45 833.085 2368.33 834.392C2373.29 835.698 2378.17 836.351 2382.96 836.351C2390.97 836.351 2396.98 834.827 2400.99 831.779C2404.99 828.643 2407 824.549 2407 819.498C2407 815.752 2405.73 812.399 2403.21 809.437C2400.68 806.476 2396.89 803.689 2391.84 801.076C2386.79 798.376 2380.48 795.545 2372.9 792.584C2365.32 789.535 2358.22 785.833 2351.6 781.478C2345.07 777.123 2339.76 771.68 2335.66 765.147C2331.57 758.615 2329.52 750.514 2329.52 740.846C2329.52 731.178 2332.22 722.817 2337.62 715.761C2343.11 708.619 2350.3 703.132 2359.18 699.3C2368.15 695.467 2377.73 693.551 2387.92 693.551ZM2549.82 693.551C2560.53 693.551 2569.89 694.727 2577.91 697.078C2585.92 699.43 2592.36 701.913 2597.24 704.526C2602.12 707.139 2605.08 708.881 2606.13 709.752L2587.31 741.238C2585.92 740.193 2583.52 738.669 2580.13 736.665C2576.82 734.662 2572.85 732.877 2568.24 731.309C2563.71 729.741 2558.96 728.957 2554 728.957C2547.29 728.957 2541.85 730.176 2537.67 732.615C2533.57 734.967 2531.53 738.495 2531.53 743.198C2531.53 746.421 2532.61 749.338 2534.79 751.951C2537.06 754.477 2540.45 756.916 2544.98 759.268C2549.6 761.532 2555.43 764.015 2562.49 766.715C2568.94 769.067 2574.99 771.854 2580.65 775.077C2586.31 778.299 2591.28 782.132 2595.54 786.574C2599.9 790.929 2603.34 795.981 2605.87 801.729C2608.39 807.478 2609.65 814.01 2609.65 821.327C2609.65 830.037 2607.87 837.614 2604.3 844.06C2600.73 850.418 2595.85 855.688 2589.66 859.868C2583.57 864.049 2576.6 867.141 2568.76 869.145C2561.01 871.235 2552.95 872.28 2544.59 872.28C2532.75 872.28 2522.12 870.93 2512.71 868.23C2503.39 865.53 2495.86 862.612 2490.11 859.476C2484.36 856.341 2480.92 854.25 2479.79 853.205L2499.26 820.412C2500.3 821.196 2502.3 822.459 2505.26 824.201C2508.31 825.943 2512.02 827.772 2516.37 829.688C2520.73 831.517 2525.34 833.085 2530.22 834.392C2535.18 835.698 2540.06 836.351 2544.85 836.351C2552.87 836.351 2558.88 834.827 2562.88 831.779C2566.89 828.643 2568.89 824.549 2568.89 819.498C2568.89 815.752 2567.63 812.399 2565.1 809.437C2562.58 806.476 2558.79 803.689 2553.74 801.076C2548.68 798.376 2542.37 795.545 2534.79 792.584C2527.21 789.535 2520.12 785.833 2513.5 781.478C2506.96 777.123 2501.65 771.68 2497.56 765.147C2493.46 758.615 2491.42 750.514 2491.42 740.846C2491.42 731.178 2494.12 722.817 2499.52 715.761C2505 708.619 2512.19 703.132 2521.07 699.3C2530.04 695.467 2539.63 693.551 2549.82 693.551Z" fill="#2270B8"/>
</svg>
